<svg xmlns="http://www.w3.org/2000/svg" viewBox="0 0 1185 1186">
  <g fill="none" fill-rule="evenodd">
    <path fill="#FF3600" d="M649.43 15.04a116.24 116.24 0 0 1 44.1 44c58.7 103.65 119 186.44 180.9 248.35 61.62 61.6 144.17 121.9 247.65 180.85l3.14 1.79c55.85 31.67 75.44 102.6 43.77 158.45a116.24 116.24 0 0 1-43.95 43.87C1022.76 750.12 940.5 809.7 878.27 871.12c-62.92 62.07-124.31 146.01-184.19 251.82l-1.81 3.2a116.2 116.2 0 0 1-100.04 59.21V.05a115.7 115.7 0 0 1 57.2 15Z"/>
    <path fill="#FFB08A" d="m731.2 447.64 2.34 2.31.93.92.93.92c77.34 76.25 78.23 200.76 1.98 278.1l-.96.97-.96.95-1.2 1.2-1.22 1.2a197.68 197.68 0 0 1-140.6 58.49V391.59a198.63 198.63 0 0 1 138.76 56.05Z"/>
    <path fill="#FFB08A" d="M535.67 15.02A116.24 116.24 0 0 0 491.58 59c-58.7 103.66-119 186.44-180.91 248.35-61.61 61.61-144.16 121.9-247.65 180.86L59.88 490C4.04 521.67-15.56 592.61 16.11 648.46a116.24 116.24 0 0 0 43.95 43.86C162.34 750.1 244.6 809.68 306.84 871.1c62.91 62.08 124.3 146.02 184.18 251.82l1.82 3.21a116.2 116.2 0 0 0 100.04 59.2V.04a115.7 115.7 0 0 0-57.2 14.99Z"/>
    <path fill="#FF3600" d="m453.92 447.62-2.35 2.3-.92.92-.93.92c-77.34 76.25-78.23 200.76-1.99 278.1l.96.97.97.96 1.2 1.2 1.21 1.2a197.68 197.68 0 0 0 140.6 58.48v-401.1a198.63 198.63 0 0 0-138.75 56.05Z"/>
  </g>
</svg>
